# Blender v2.65 (sub 0) OBJ File: 'runabout.blend'
# www.blender.org
mtllib runabout.mtl
o Runabout_Ship
v 1.000000 -0.271257 -3.011191
v 1.000000 -0.271257 3.011191
v -1.000000 -0.271257 3.011190
v -1.000000 -0.271257 -3.011192
v 1.000000 0.271257 -3.011189
v 0.933231 0.271257 1.972427
v -0.933232 0.271257 1.972424
v -1.000000 0.271257 -3.011191
v 0.000000 -0.461475 -3.011191
v 0.000000 -0.411643 4.443609
v 0.000000 0.365482 -3.011190
v -0.000001 0.339768 3.011191
v -2.068732 1.035828 -0.995304
v -1.618056 0.818658 1.002253
v -1.329375 0.742934 -0.997195
v -1.328759 0.742935 1.002805
v 1.000000 0.000000 3.011192
v -1.022507 0.035828 1.002021
v -1.329375 -0.671279 -0.997194
v -1.328759 -0.671279 1.002805
v -2.068732 -0.964172 -0.995304
v -1.618056 -0.747002 1.002253
v -2.808089 -0.671279 -0.993413
v -2.196847 -0.517716 1.003734
v -3.114341 0.035828 -0.992630
v -2.436590 0.035828 1.004346
v -2.808089 0.742934 -0.993413
v -2.196847 0.589372 1.003733
v 2.075415 1.035828 -1.016499
v 1.626589 0.818658 0.985659
v 2.814771 0.742934 -1.020280
v 2.205379 0.589372 0.982699
v 3.121023 0.035828 -1.021846
v 2.445122 0.035828 0.981473
v 2.814771 -0.671279 -1.020280
v 2.205379 -0.517717 0.982699
v 2.075415 -0.964172 -1.016499
v 1.626589 -0.747002 0.985659
v 1.336059 -0.671279 -1.012717
v 1.337292 -0.671279 0.987279
v -0.500000 -0.401516 4.113256
v 1.031041 0.035828 0.988845
v 1.336059 0.742934 -1.012718
v 1.337292 0.742934 0.987279
v -1.000000 0.000000 3.011190
v -0.500000 0.294184 3.011190
v 0.500000 -0.401516 4.113257
v 0.499999 0.294184 3.011192
v -0.000000 -0.035938 3.839784
v -0.500000 -0.029297 3.580131
v 0.500000 -0.029297 3.580132
v -1.164379 0.264120 1.284511
v -1.164688 0.507096 -1.382366
v -1.164379 -0.471268 2.006997
v -1.164687 -0.471268 -2.004193
v 1.000000 0.159350 2.630831
v -1.000000 0.159350 2.630828
v -0.000000 0.153389 3.422237
v -0.500000 0.156370 3.293429
v -1.164533 -0.471268 0.001402
v -1.164533 0.507096 0.001402
v -2.807781 0.742934 0.006586
v 1.336676 0.742934 -0.012719
v 1.168338 -0.471268 -0.006360
v 1.168338 0.507096 -0.006359
v 0.500000 0.156370 3.293430
v 1.168646 -0.471268 1.999235
v 1.168030 -0.471268 -2.011954
v 1.168646 0.264120 1.276749
v 1.168030 0.507095 -1.390127
v -3.114032 0.035828 0.007369
v -2.807781 -0.671279 0.006586
v -2.068424 -0.964172 0.004696
v -1.329067 -0.671279 0.002805
v -1.329067 0.742934 0.002805
v -2.068424 1.035828 0.004696
v -1.000000 0.271257 -0.000001
v -1.000000 -0.271257 -0.000001
v 2.815388 0.742934 -0.020282
v 2.076032 1.035828 -0.016501
v 1.000000 0.271257 0.000002
v 1.000000 -0.271257 0.000000
v 1.336676 -0.671279 -0.012719
v 2.076032 -0.964172 -0.016500
v 2.815388 -0.671279 -0.020282
v 3.121639 0.035828 -0.021848
v -2.103619 0.795799 -1.134747
v -1.534299 0.573209 -1.136638
v -1.534299 -0.501554 -1.136637
v -2.103619 -0.724144 -1.134747
v -2.672940 -0.501553 -1.132856
v -2.908761 0.035828 -1.132073
v -2.672940 0.573208 -1.132856
v 2.113119 0.762068 -1.155942
v 2.663202 0.549357 -1.159723
v 2.891054 0.035828 -1.161289
v 2.663202 -0.477702 -1.159723
v 2.113119 -0.690413 -1.155942
v 1.563037 -0.477702 -1.152160
v 1.563037 0.549357 -1.152161
v 0.043523 0.315115 3.011191
v 0.043524 -0.431446 4.414853
v 0.043524 -0.056045 3.817182
v 0.043524 0.153649 3.411024
v -0.041860 0.153639 3.411453
v -0.041860 -0.056142 3.818046
v -0.041860 -0.431556 4.415952
v -0.041861 0.315191 3.011191
v -0.991663 0.153496 2.548612
v 0.991662 0.153496 2.548615
v -0.041860 0.153984 3.361471
v -0.000000 0.126061 3.482507
v 0.043524 0.103994 3.469651
v -0.041860 0.103971 3.470142
v -0.500000 0.153751 3.258185
v -0.000000 0.176663 3.370909
v 1.000000 0.116962 2.685733
v -1.000000 0.116962 2.685731
v 0.500000 0.110183 3.334813
v -0.500000 0.110183 3.334812
v 0.043524 0.153983 3.361096
v 0.500000 0.153751 3.258186
vt 0.493162 0.539498
vt 0.493162 0.454555
vt 0.561469 0.474094
vt 0.561469 0.529819
vt 0.424855 0.529819
vt 0.424855 0.474094
vt 0.677588 0.554044
vt 0.638822 0.578269
vt 0.638822 0.433005
vt 0.741460 0.453550
vt 0.323209 0.554044
vt 0.259337 0.453550
vt 0.362773 0.433005
vt 0.362773 0.578269
vt 0.155902 0.529819
vt 0.155902 0.474094
vt 0.844098 0.474094
vt 0.844098 0.529819
vt 0.863952 0.655635
vt 0.780508 0.735693
vt 0.779540 0.655642
vt 0.852976 0.854104
vt 0.781475 0.815744
vt 0.856913 0.853208
vt 0.833466 0.844835
vt 0.512339 0.912908
vt 0.389082 0.912908
vt 0.389082 0.541758
vt 0.512339 0.170607
vt 0.397311 0.298642
vt 0.450710 0.170607
vt 0.507179 0.170607
vt 0.331877 0.086642
vt 0.390815 0.000000
vt 0.394091 0.080803
vt 0.350236 0.143729
vt 0.454380 0.590833
vt 0.399360 0.788666
vt 0.385566 0.590386
vt 0.454095 0.670906
vt 0.453809 0.750979
vt 0.409069 0.780029
vt 0.394186 0.787896
vt 0.635596 0.912908
vt 0.635596 0.541757
vt 0.627366 0.298642
vt 0.517703 0.170607
vt 0.573967 0.170607
vt 0.695593 0.299677
vt 0.695455 0.251349
vt 0.698917 0.244112
vt 0.699058 0.293048
vt 0.539434 0.849364
vt 0.421689 0.769427
vt 0.421624 0.718078
vt 0.539657 0.718133
vt 0.696100 0.474584
vt 0.695773 0.362669
vt 0.699240 0.356835
vt 0.699567 0.468858
vt 0.251437 0.677603
vt 0.224845 0.677675
vt 0.224848 0.651745
vt 0.251269 0.582419
vt 0.116950 0.582346
vt 0.074060 0.526391
vt 0.112273 0.454249
vt 0.165765 0.490190
vt 0.000244 0.095255
vt 0.020670 0.070513
vt 0.074521 0.131894
vt 0.000000 0.303993
vt 0.112464 0.290843
vt 0.048469 0.507036
vt 0.539211 0.980595
vt 0.421514 0.872159
vt 0.541935 0.113749
vt 0.423647 0.193523
vt 0.423997 0.090791
vt 0.542382 -0.017482
vt 0.331635 0.092188
vt 0.278276 0.128115
vt 0.240066 0.055947
vt 0.282824 0.000000
vt 0.701248 0.474910
vt 0.726854 0.548507
vt 0.726283 0.578474
vt 0.699697 0.578163
vt 0.240524 0.450469
vt 0.186676 0.511825
vt 0.166251 0.487074
vt 0.166009 0.278324
vt 0.278466 0.291531
vt 0.214477 0.075293
vt 0.541489 0.244980
vt 0.423456 0.244871
vt 0.619014 0.695747
vt 0.646063 0.636800
vt 0.699381 0.637454
vt 0.699064 0.696745
vt 0.251621 0.738019
vt 0.198288 0.738158
vt 0.896454 0.489709
vt 0.889079 0.623642
vt 0.887915 0.244112
vt 0.915143 0.484032
vt 0.930265 0.454474
vt 0.933866 0.444970
vt 0.932441 0.456337
vt 0.942422 0.413636
vt 0.915057 0.292476
vt 0.942199 0.340839
vt 0.833865 0.244112
vt 0.832603 0.655635
vt 0.825379 0.514006
vt 0.806939 0.512848
vt 0.791706 0.479313
vt 0.789512 0.481121
vt 0.788090 0.468781
vt 0.779540 0.434715
vt 0.779782 0.355782
vt 0.806824 0.299947
vt 0.251804 0.798436
vt 0.171731 0.798642
vt 0.657244 0.980650
vt 0.657467 0.849419
vt 0.702473 0.314658
vt 0.702429 0.299915
vt 0.739114 0.298638
vt 0.739155 0.312307
vt 0.695636 0.314670
vt 0.695592 0.299930
vt 0.699077 0.300031
vt 0.699101 0.308230
vt 0.673112 0.577853
vt 0.779160 0.295583
vt 0.779197 0.308181
vt 0.619051 0.308652
vt 0.619014 0.296055
vt 0.659041 0.298874
vt 0.659081 0.312543
vt 0.971767 0.244112
vt 0.998353 0.244270
vt 0.997386 0.347530
vt 0.970799 0.347372
vt 0.304953 0.737880
vt 0.278029 0.677530
vt 0.277861 0.582346
vt 0.657690 0.718188
vt 0.331877 0.798230
vt 0.674663 0.474599
vt 0.969232 0.339295
vt 0.942640 0.339372
vt 0.942422 0.244189
vt 0.969014 0.244112
vt 0.659968 0.113859
vt 0.660415 -0.017372
vt 0.659522 0.245090
vt 0.752699 0.638108
vt 0.779115 0.697742
vt 0.451563 0.503744
vt 0.392626 0.590386
vt 0.395406 0.509565
vt 0.439260 0.446639
vt 0.499328 0.086642
vt 0.558265 0.000000
vt 0.555698 0.070863
vt 0.510312 0.136710
vt 0.619014 0.503744
vt 0.560076 0.590386
vt 0.557074 0.519540
vt 0.602460 0.453693
vt 0.450283 0.086278
vt 0.438330 0.143458
vt 0.333158 0.504107
vt 0.351166 0.446909
vt 0.617733 0.086278
vt 0.601487 0.136431
vt 0.500608 0.504108
vt 0.511285 0.453973
vt 0.702610 0.362680
vt 0.702291 0.251307
vt 0.702430 0.299658
vt 0.702937 0.474599
vt 0.132419 0.625114
vt 0.133423 0.624767
vt 0.140702 0.660454
vt 0.139453 0.660772
vt 0.157711 0.618412
vt 0.158748 0.618641
vt 0.165959 0.661694
vt 0.163374 0.661796
vt 0.138222 0.582504
vt 0.140734 0.582346
vt 0.164777 0.582346
vt 0.166009 0.582728
vt 0.465878 0.433005
vt 0.568301 0.448779
vt 0.568364 0.505637
vt 0.465958 0.505637
vt 0.568301 0.562495
vt 0.465878 0.578269
vt 0.536882 0.578269
vt 0.433859 0.562495
vt 0.433985 0.505637
vt 0.537043 0.505637
vt 0.433859 0.448779
vt 0.536882 0.433005
vt 0.559891 0.675362
vt 0.559642 0.726221
vt 0.382127 0.726194
vt 0.332120 0.637995
vt 0.438731 0.693470
vt 0.437602 0.744667
vt 0.260087 0.744612
vt 0.193092 0.693442
vt 0.560140 0.624502
vt 0.210005 0.618576
vt 0.363161 0.433005
vt 0.363242 0.505637
vt 0.439861 0.642272
vt -0.094671 0.642272
vt 0.363161 0.578269
vt 0.805530 0.675375
vt 0.737157 0.726249
vt 1.094671 0.624502
vt 0.639759 0.505637
vt 0.639598 0.433005
vt 0.639598 0.578269
vt 0.789996 0.636347
vt 0.666503 0.656144
vt 0.615117 0.744722
vt 0.475446 0.294936
vt 0.457040 0.294993
vt 0.475446 0.295450
vt 0.491916 0.295399
vt 0.465777 0.250159
vt 0.465777 0.271297
vt 0.428701 0.360194
vt 0.423701 0.310884
vt 0.504985 0.241320
vt 0.504985 0.271297
vt 0.593433 0.310884
vt 0.588432 0.360194
vt 0.551357 0.271297
vt 0.551357 0.250159
vt 0.504985 0.151078
vt 0.504985 0.202247
vt 0.465777 0.222607
vt 0.465777 0.176983
vt 0.422987 0.271297
vt 0.594146 0.271297
vt 0.551357 0.222607
vt 0.551357 0.176983
vt 0.512292 0.271297
vt 0.512292 0.241352
vt 0.512292 0.202321
vt 0.512292 0.151172
vt 0.465777 0.243602
vt 0.422987 0.299150
vt 0.594146 0.299149
vt 0.551357 0.243602
vt 0.512292 0.232062
vt 0.504985 0.232020
vn 0.000001 0.000002 -1.000000
vn 0.969237 0.061912 -0.238216
vn -0.971028 0.060110 -0.231284
vn -0.990910 0.050910 -0.124517
vn 0.990432 0.052227 -0.127739
vn -0.186868 -0.982385 -0.000000
vn -0.167678 -0.985820 0.006590
vn -0.139023 -0.990289 -0.000000
vn 0.017742 -0.991961 -0.125295
vn 0.616972 -0.615034 -0.490998
vn -0.093809 0.995590 -0.000000
vn -0.081099 0.996697 0.004256
vn -0.076066 0.997099 0.002575
vn -0.090780 0.995744 0.015884
vn -0.000002 0.000004 1.000000
vn -0.173868 0.430164 -0.885849
vn 0.186864 -0.982364 0.006567
vn 0.139023 -0.990289 0.000000
vn -0.081345 -0.984825 -0.153308
vn -0.551251 -0.000014 -0.834339
vn 0.093808 0.995581 0.004251
vn 0.068351 0.997661 0.000000
vn 0.076066 0.997099 0.002575
vn 0.459882 0.811904 0.359612
vn 0.045805 0.998946 -0.002944
vn 0.476115 0.799845 0.365461
vn 0.337257 0.941048 0.026219
vn 0.574299 0.694166 0.433953
vn 0.337257 -0.941047 0.026219
vn -0.344832 -0.872699 0.345670
vn -0.000130 0.006784 0.999977
vn 0.001176 -0.000599 0.999999
vn 0.001644 0.000395 0.999999
vn 0.001644 -0.000395 0.999999
vn 0.001176 0.000599 0.999999
vn -0.000130 -0.006783 0.999977
vn -0.344832 0.872699 0.345670
vn 0.347248 0.872116 0.344721
vn 0.347248 -0.872116 0.344721
vn -0.337101 -0.941095 0.026510
vn 0.005406 0.000736 0.999985
vn 0.005264 -0.000065 0.999986
vn 0.005213 0.000043 0.999986
vn 0.005289 -0.000075 0.999986
vn 0.005406 -0.000737 0.999985
vn -0.337101 0.941095 0.026510
vn -0.765434 -0.643515 0.000047
vn 0.772566 -0.634934 -0.000119
vn -0.863711 0.000000 0.503987
vn -0.436523 0.889131 0.137453
vn -0.980991 0.128635 0.145292
vn -0.988655 -0.118895 -0.091793
vn -0.943838 0.329019 0.030274
vn -0.969965 0.228912 0.082265
vn -0.986866 -0.000000 0.161543
vn 0.864053 0.000000 0.503400
vn 0.434399 0.890107 0.137867
vn 0.980302 0.131002 0.147806
vn 0.988655 -0.118895 -0.091794
vn 0.941880 0.334437 0.031836
vn 0.968699 0.233612 0.083954
vn 0.986396 0.000001 0.164386
vn 0.986396 0.000000 0.164386
vn 0.772449 -0.635076 -0.000024
vn -0.368300 0.929707 0.000113
vn -0.181166 0.710216 0.680274
vn 0.339197 0.789646 0.511277
vn -0.765664 -0.643241 0.000236
vn -0.660988 0.552265 0.508033
vn 0.660988 0.552265 0.508034
vn -0.368300 -0.929707 0.000114
vn 0.771981 -0.635645 -0.000119
vn 0.368299 -0.929707 -0.000113
vn 0.368299 0.929707 -0.000114
vn 0.772099 -0.635503 -0.000024
vn -0.368299 -0.929707 0.000227
vn 0.368299 -0.929707 -0.000227
vn 0.368299 0.929707 -0.000227
vn -0.368299 0.929707 0.000227
vn -0.764736 -0.644344 0.000047
vn -0.764500 -0.644624 0.000235
vn 0.179788 -0.471426 -0.863385
vn -0.205564 0.515771 -0.831699
vn 0.185223 -0.476536 -0.859422
vn 0.179788 0.471426 -0.863385
vn -0.173868 -0.430164 -0.885849
vn 0.185223 0.476536 -0.859422
vn -0.205564 -0.515771 -0.831699
vn 0.181214 0.710040 0.680445
vn -0.532288 0.770033 0.351736
vn -0.488772 0.793545 0.362475
vn -0.301096 0.928689 0.216511
vn -0.583797 0.688480 0.430321
vn -0.346385 0.787530 0.509720
vn 0.520735 0.776502 0.354795
vn -0.009200 0.999598 -0.026809
vn 0.092787 0.993557 -0.065083
vn 0.292323 0.931341 0.217144
vn -0.092787 0.993557 -0.065083
vn 0.009165 0.999602 -0.026666
vn -0.523456 -0.000000 -0.852053
vn -0.778511 -0.337763 0.528996
vn -0.778511 0.337763 0.528996
vn 0.780645 0.336935 0.526372
vn 0.780645 -0.336935 0.526372
vn 0.900503 0.432427 0.045838
vn -0.814296 0.580450 0.000316
vn 0.420979 0.905156 0.058902
vn -0.917632 -0.397432 0.000283
vn -0.814270 0.580486 0.000057
vn -0.917632 0.397432 0.000283
vn 0.819949 0.572437 -0.000159
vn 0.819963 0.572416 -0.000029
vn 0.917632 -0.397432 -0.000566
vn 0.917632 0.397432 -0.000566
vn -0.411706 0.909374 0.059466
vn -0.895759 0.442005 0.047402
vn 0.499993 0.220926 -0.837376
vn 0.562572 -0.000000 -0.826748
vn -0.542694 -0.235371 -0.806278
vn 0.499993 -0.220927 -0.837376
vn -0.542694 0.235371 -0.806278
vn -0.465083 0.853584 0.234717
vn -0.071327 0.890351 0.449652
vn 0.465083 0.853584 0.234717
vn -0.263865 0.804654 0.531891
vn -0.764230 0.411467 0.496636
vn 0.764230 0.411468 0.496636
vn 0.071339 0.890282 0.449788
vn 0.263906 0.804597 0.531956
vn -0.422587 0.826716 0.371432
vn 0.422587 0.826716 0.371432
vn 0.149778 0.882488 0.445849
vn -0.149723 0.882563 0.445719
vn -0.003321 0.000000 -0.999994
vn -0.003321 -0.000001 -0.999995
vn -0.006874 -0.000000 -0.999976
vn -0.006874 -0.000001 -0.999976
g Runabout_Ship_Metal1
usemtl Metal1
s off
f 11/1/1 9/2/1 4/3/1
f 11/1/1 4/3/1 8/4/1
f 5/5/1 1/6/1 9/2/1
f 5/5/1 9/2/1 11/1/1
f 70/7/2 43/8/2 39/9/2
f 70/7/2 39/9/2 68/10/2
f 53/11/3 55/12/3 19/13/3
f 53/11/3 19/13/3 15/14/3
f 8/15/4 4/16/4 55/12/4
f 8/15/4 55/12/4 53/11/4
f 68/10/5 1/17/5 5/18/5
f 68/10/5 5/18/5 70/7/5
g Runabout_Ship_Metal1_metal2.JPG
usemtl Metal1_metal2.JPG
f 9/19/6 78/20/6 4/21/6
f 9/19/7 10/22/7 78/20/7
f 10/22/8 3/23/8 78/20/8
f 107/24/9 41/25/9 3/23/9
f 10/22/10 107/24/10 3/23/10
f 11/26/11 8/27/11 77/28/11
f 11/26/12 77/28/12 12/29/12
f 77/28/13 7/30/13 12/29/13
f 7/30/14 46/31/14 12/29/14
f 46/31/15 108/32/15 12/29/15
f 43/33/16 29/34/16 94/35/16
f 43/33/16 94/35/16 100/36/16
f 1/37/17 10/38/17 9/39/17
f 1/37/18 82/40/18 10/38/18
f 82/40/18 2/41/18 10/38/18
f 2/41/19 47/42/19 10/38/19
f 47/42/20 102/43/20 10/38/20
f 5/44/21 11/26/21 12/29/21
f 5/44/22 12/29/22 81/45/22
f 12/29/23 6/46/23 81/45/23
f 12/29/24 101/47/24 6/46/24
f 101/47/25 48/48/25 6/46/25
f 121/49/26 101/50/26 12/51/26
f 121/49/26 12/51/26 116/52/26
f 76/53/27 14/54/27 16/55/27
f 76/53/27 16/55/27 75/56/27
f 102/57/28 103/58/28 49/59/28
f 102/57/28 49/59/28 10/60/28
f 74/61/29 20/62/29 22/63/29
f 74/61/29 22/63/29 73/64/29
f 73/65/30 22/66/30 24/67/30
f 73/65/30 24/67/30 72/68/30
f 16/69/31 14/70/31 28/71/31
f 16/69/32 28/71/32 18/72/32
f 28/71/33 26/73/33 18/72/33
f 26/73/34 24/67/34 18/72/34
f 24/67/35 20/74/35 18/72/35
f 24/67/36 22/66/36 20/74/36
f 62/75/37 28/76/37 14/54/37
f 62/75/37 14/54/37 76/53/37
f 80/77/38 30/78/38 32/79/38
f 80/77/38 32/79/38 79/80/38
f 85/81/39 36/82/39 38/83/39
f 85/81/39 38/83/39 84/84/39
f 84/85/40 38/86/40 40/87/40
f 84/85/40 40/87/40 83/88/40
f 32/89/41 30/90/41 44/91/41
f 32/89/42 44/91/42 42/92/42
f 32/89/43 42/92/43 34/93/43
f 42/92/43 40/94/43 34/93/43
f 40/94/44 36/82/44 34/93/44
f 40/94/45 38/83/45 36/82/45
f 63/95/46 44/96/46 30/78/46
f 63/95/46 30/78/46 80/77/46
f 1/97/47 68/98/47 64/99/47
f 1/97/47 64/99/47 82/100/47
f 60/101/48 54/102/48 20/62/48
f 60/101/48 20/62/48 74/61/48
f 52/103/49 16/104/49 20/105/49
f 7/106/50 52/103/50 109/107/50
f 52/103/51 20/105/51 109/107/51
f 118/108/52 57/109/52 109/107/52
f 20/105/53 118/108/53 109/107/53
f 20/105/54 45/110/54 118/108/54
f 54/111/55 3/112/55 45/110/55
f 20/105/55 54/111/55 45/110/55
f 40/113/56 44/114/56 69/115/56
f 6/116/57 110/117/57 69/115/57
f 110/117/58 40/113/58 69/115/58
f 110/117/59 56/118/59 117/119/59
f 110/117/60 117/119/60 40/113/60
f 117/119/61 17/120/61 40/113/61
f 17/120/62 2/121/62 67/122/62
f 17/120/63 67/122/63 40/113/63
f 78/123/64 3/124/64 54/102/64
f 78/123/64 54/102/64 60/101/64
f 27/125/65 62/75/65 76/53/65
f 27/125/65 76/53/65 13/126/65
f 114/127/66 105/128/66 59/129/66
f 114/127/66 59/129/66 120/130/66
f 113/131/67 104/132/67 58/133/67
f 113/131/67 58/133/67 112/134/67
f 83/88/68 64/99/68 68/98/68
f 83/88/68 68/98/68 39/135/68
f 120/130/69 59/129/69 57/136/69
f 120/130/69 57/136/69 118/137/69
f 117/138/70 56/139/70 66/140/70
f 117/138/70 66/140/70 119/141/70
f 21/142/71 73/143/71 72/144/71
f 21/142/71 72/144/71 23/145/71
f 55/146/72 60/101/72 74/61/72
f 55/146/72 74/61/72 19/147/72
f 19/147/73 74/61/73 73/64/73
f 19/147/73 73/64/73 21/148/73
f 13/126/74 76/53/74 75/56/74
f 13/126/74 75/56/74 15/149/74
f 4/150/75 78/123/75 60/101/75
f 4/150/75 60/101/75 55/146/75
f 37/151/76 84/85/76 83/88/76
f 37/151/76 83/88/76 39/135/76
f 35/152/77 85/153/77 84/154/77
f 35/152/77 84/154/77 37/155/77
f 29/156/78 80/77/78 79/80/78
f 29/156/78 79/80/78 31/157/78
f 43/158/79 63/95/79 80/77/79
f 43/158/79 80/77/79 29/156/79
f 67/159/80 2/160/80 82/100/80
f 67/159/80 82/100/80 64/99/80
f 40/87/81 67/159/81 64/99/81
f 40/87/81 64/99/81 83/88/81
f 35/161/82 37/162/82 98/163/82
f 35/161/82 98/163/82 97/164/82
f 27/165/83 13/166/83 87/167/83
f 27/165/83 87/167/83 93/168/83
f 19/169/84 21/170/84 90/171/84
f 19/169/84 90/171/84 89/172/84
f 29/34/85 31/173/85 95/174/85
f 29/34/85 95/174/85 94/35/85
f 37/162/86 39/175/86 99/176/86
f 37/162/86 99/176/86 98/163/86
f 13/166/87 15/177/87 88/178/87
f 13/166/87 88/178/87 87/167/87
f 21/170/88 23/179/88 91/180/88
f 21/170/88 91/180/88 90/171/88
f 119/141/89 66/140/89 104/132/89
f 119/141/89 104/132/89 113/131/89
f 49/59/90 112/134/90 114/127/90
f 49/59/90 114/127/90 106/181/90
f 116/52/91 12/51/91 108/182/91
f 116/52/91 108/182/91 111/183/91
f 58/133/92 116/52/92 111/183/92
f 58/133/92 111/183/92 105/128/92
f 10/60/93 49/59/93 106/181/93
f 10/60/93 106/181/93 107/184/93
f 112/134/94 58/133/94 105/128/94
f 112/134/94 105/128/94 114/127/94
f 103/58/95 113/131/95 112/134/95
f 103/58/95 112/134/95 49/59/95
f 66/185/96 122/186/96 121/187/96
f 66/185/96 121/187/96 104/188/96
f 59/189/97 115/190/97 109/191/97
f 59/189/97 109/191/97 57/192/97
f 104/132/98 121/49/98 116/52/98
f 104/132/98 116/52/98 58/133/98
f 56/193/99 110/194/99 122/186/99
f 56/193/99 122/186/99 66/185/99
f 105/195/100 111/196/100 115/190/100
f 105/195/100 115/190/100 59/189/100
g Runabout_Ship_Metal2
usemtl Metal2
f 39/175/101 43/33/101 100/36/101
f 39/175/101 100/36/101 99/176/101
f 72/197/102 24/198/102 26/199/102
f 72/197/102 26/199/102 71/200/102
f 71/200/103 26/199/103 28/201/103
f 71/200/103 28/201/103 62/202/103
f 79/203/104 32/204/104 34/205/104
f 79/203/104 34/205/104 86/206/104
f 86/206/105 34/205/105 36/207/105
f 86/206/105 36/207/105 85/208/105
f 61/209/106 75/210/106 16/211/106
f 61/209/106 16/211/106 52/212/106
f 65/213/107 63/214/107 43/215/107
f 65/213/107 43/215/107 70/216/107
f 77/217/108 61/209/108 52/212/108
f 77/217/108 52/212/108 7/218/108
f 23/219/109 72/197/109 71/200/109
f 23/219/109 71/200/109 25/220/109
f 81/221/110 65/213/110 70/216/110
f 81/221/110 70/216/110 5/222/110
f 25/220/111 71/200/111 62/202/111
f 25/220/111 62/202/111 27/223/111
f 53/224/112 15/225/112 75/210/112
f 53/224/112 75/210/112 61/209/112
f 8/226/113 53/224/113 61/209/113
f 8/226/113 61/209/113 77/217/113
f 33/227/114 86/206/114 85/208/114
f 33/227/114 85/208/114 35/228/114
f 31/229/115 79/203/115 86/206/115
f 31/229/115 86/206/115 33/227/115
f 6/230/116 69/231/116 65/213/116
f 6/230/116 65/213/116 81/221/116
f 69/231/117 44/232/117 63/214/117
f 69/231/117 63/214/117 65/213/117
f 31/173/118 33/233/118 96/234/118
f 31/173/118 96/234/118 95/174/118
f 15/177/119 19/169/119 89/172/119
f 15/177/119 89/172/119 88/178/119
f 23/179/120 25/235/120 92/236/120
f 23/179/120 92/236/120 91/180/120
f 33/233/121 35/161/121 97/164/121
f 33/233/121 97/164/121 96/234/121
f 25/235/122 27/165/122 93/168/122
f 25/235/122 93/168/122 92/236/122
g Runabout_Ship_Cockpit
usemtl Cockpit
f 115/237/123 46/238/123 7/239/123
f 115/237/123 7/239/123 109/240/123
f 111/241/124 108/242/124 46/238/124
f 111/241/124 46/238/124 115/237/124
f 110/243/125 6/244/125 48/245/125
f 110/243/125 48/245/125 122/246/125
f 107/247/126 106/248/126 50/249/126
f 107/247/126 50/249/126 41/250/126
f 41/250/127 50/249/127 45/251/127
f 41/250/127 45/251/127 3/251/127
f 2/252/128 17/252/128 51/253/128
f 2/252/128 51/253/128 47/254/128
f 122/246/129 48/245/129 101/255/129
f 122/246/129 101/255/129 121/256/129
f 47/254/130 51/253/130 103/257/130
f 47/254/130 103/257/130 102/258/130
f 50/249/131 120/259/131 118/260/131
f 50/249/131 118/260/131 45/251/131
f 17/252/132 117/261/132 119/262/132
f 17/252/132 119/262/132 51/253/132
f 51/253/133 119/262/133 113/263/133
f 51/253/133 113/263/133 103/257/133
f 106/248/134 114/264/134 120/259/134
f 106/248/134 120/259/134 50/249/134
g Runabout_Ship_engine
usemtl engine
f 87/167/135 88/178/135 93/168/135
f 88/178/135 89/172/135 93/168/135
f 89/172/135 92/236/135 93/168/135
f 89/172/135 91/180/135 92/236/135
f 89/172/136 90/171/136 91/180/136
f 100/36/137 94/35/137 95/174/137
f 100/36/137 95/174/137 96/234/137
f 100/36/137 96/234/137 99/176/137
f 96/234/138 97/164/138 99/176/138
f 97/164/137 98/163/137 99/176/137
