# Blender v2.65 (sub 0) OBJ File: ''
# www.blender.org
mtllib general_debris_2.mtl
o debris_Circle
v -0.216701 -0.500368 -1.077424
v 0.256831 -0.500368 -0.828619
v 0.286795 0.146258 -0.419294
v 0.264857 -0.074062 0.343174
v 0.319316 -0.500368 0.704343
v -0.176572 -0.500368 1.081564
v -0.216701 0.103532 -1.077424
v 0.256831 0.439559 -0.828619
v 0.626026 0.713685 -0.419294
v 0.264857 0.642943 0.343174
v 0.802598 0.881699 0.704343
v -0.176572 0.103532 1.081564
v -0.706286 0.103532 0.423434
v -0.369195 0.103532 -0.547710
vt 0.303573 0.306084
vt 0.773808 0.226856
vt 0.452645 0.000000
vt 1.000000 0.536022
vt 0.000000 0.860624
vt 0.688914 0.956012
vt 0.999100 1.252991
vt 0.193320 1.323606
vt 0.223548 0.535995
vt 0.308774 0.285197
vt 0.000154 0.502673
vt 0.862901 0.126902
vt 0.811956 0.363955
vt 1.000000 0.495949
vt 0.999908 0.000000
vt 0.707124 0.540998
vt 0.570639 0.741424
vt 0.707585 0.848931
vt 0.408041 0.604360
vt 0.308774 0.804083
vt 0.546831 0.799198
vt 0.546085 0.556266
vt 0.366742 0.804083
vt 0.382828 0.984996
vt 0.546831 0.804162
vt 0.811570 0.089587
vt 0.658308 0.368045
vt 0.777647 0.540999
vt 0.811956 0.326838
vt 0.309109 0.057085
vt 0.308774 0.556266
vt 0.570639 0.196161
vt 0.512447 0.000000
vt 0.707764 0.540998
vt 0.707584 0.813198
vt 0.846451 0.691214
vt 0.669110 0.000000
vt 0.570639 0.178909
vt 0.000000 0.152006
vt 0.243238 0.000000
vt 0.308121 0.535995
vt 0.136802 0.603437
vt 0.108760 0.793279
vt 0.308774 0.835623
vn -0.518828 0.841730 -0.149360
vn -0.508726 0.853513 -0.112751
vn -0.498468 0.849466 -0.173022
vn -0.489491 0.858623 -0.152201
vn -0.473372 0.871403 0.128745
vn -0.478623 0.788997 0.385233
vn 0.115586 -0.955140 -0.272667
vn 0.739882 -0.170348 -0.650812
vn -0.130268 -0.525987 0.840457
vn 0.949123 -0.250672 0.190601
vn -0.346768 -0.666469 0.659978
vn 0.951036 -0.214031 -0.222983
vn 0.502304 -0.122235 0.856008
vn -0.960973 0.000000 -0.276644
vn 0.465128 0.000000 -0.885243
vn -0.184641 -0.980714 -0.064090
vn -0.167457 -0.976623 0.134782
vn -0.760527 -0.250250 -0.599144
g debris_Circle_Metal
usemtl Metal
s off
f 14/1/1 8/2/1 7/3/1
f 14/1/2 9/4/2 8/2/2
f 14/1/3 13/5/3 9/4/3
f 13/5/4 10/6/4 9/4/4
f 13/5/5 11/7/5 10/6/5
f 13/5/6 12/8/6 11/7/6
g debris_Circle_Melting
usemtl Melting
f 3/9/7 4/10/7 14/11/7
f 4/12/8 10/13/8 11/14/8
f 4/12/8 11/14/8 5/15/8
f 2/16/9 3/17/9 14/18/9
f 3/19/10 9/20/10 10/21/10
f 3/19/10 10/21/10 4/22/10
f 1/23/11 2/24/11 14/25/11
f 2/26/12 8/27/12 9/28/12
f 2/26/12 9/28/12 3/29/12
f 5/30/13 11/31/13 12/32/13
f 5/30/13 12/32/13 6/33/13
f 1/34/14 14/35/14 7/36/14
f 1/37/15 7/38/15 8/27/15
f 1/37/15 8/27/15 2/26/15
f 4/10/16 13/39/16 14/11/16
f 12/40/17 13/39/17 4/10/17
f 4/41/18 5/42/18 6/43/18
f 4/41/18 6/43/18 12/44/18
