# Blender v2.65 (sub 0) OBJ File: ''
# www.blender.org
mtllib runabout_debris_secondary.mtl
o Runabout_Ship_Cockpit
v -0.372176 0.549357 -1.152161
v 0.177906 0.762068 -1.155942
v 0.727989 0.549357 -1.159723
v 0.955841 0.035828 -1.161289
v -0.372176 -0.477702 -1.152160
v 0.727989 -0.477702 -1.159723
v 0.177906 -0.690413 -1.155942
v -0.767183 0.507095 -1.390127
v -0.599154 0.742934 -1.012718
v -0.599154 -0.671279 -1.012717
v -0.599154 -0.671279 -1.012717
v -0.599154 0.742934 -1.012718
v -0.372176 0.549357 -1.152161
v -0.372176 -0.477702 -1.152160
v 0.880175 0.742934 -0.020282
v 0.270166 0.589372 0.982699
v 0.509909 0.035828 0.981473
v 1.186426 0.035828 -0.021848
v 0.270166 -0.517717 0.982699
v 0.880175 -0.671279 -0.020282
v -0.766875 0.539279 -0.006359
v -0.598537 0.742934 -0.012719
v -0.767183 0.539278 -1.390127
v 1.185810 0.035828 -1.021846
v 0.879558 -0.671279 -1.020280
v 0.879558 0.742934 -1.020280
v -0.766567 0.296303 0.978555
v -0.597921 0.742934 0.987279
v 0.955841 0.035828 -1.161289
v 0.727989 0.549357 -1.159723
v 0.727989 -0.477702 -1.159723
v -0.599154 0.742934 -1.012718
v 0.140202 1.035828 -1.016499
v 0.177906 0.762068 -1.155942
v -0.372176 0.549357 -1.152161
v 0.140819 1.035828 -0.016501
v -0.308624 0.818658 0.985659
v 0.270166 0.589372 0.982699
v 0.880175 0.742934 -0.020282
v 0.880175 -0.671279 -0.020282
v 0.270166 -0.517717 0.982699
v -0.308624 -0.747002 0.985659
v 0.140819 -0.964172 -0.016500
v -0.597921 -0.639096 0.987279
v -0.598537 -0.639096 -0.012719
v -0.597921 0.742934 0.987279
v -0.904172 0.035828 0.988845
v 0.509909 0.035828 0.981473
v -0.598537 0.742934 -0.012719
v -0.599154 -0.639096 -1.012717
v 0.140202 -0.964172 -1.016499
v 0.879558 -0.671279 -1.020280
v 0.879558 0.742934 -1.020280
v 0.177906 -0.690413 -1.155942
v 0.727989 -0.477702 -1.159723
v 0.727989 0.549357 -1.159723
v -0.372176 -0.477702 -1.152160
vt 0.350236 0.143729
vt 0.394091 0.080803
vt 0.438330 0.143458
vt 0.457040 0.294993
vt 0.351166 0.446909
vt 0.439260 0.446639
vt 0.395406 0.509565
vt 0.677588 0.554044
vt 0.638822 0.578269
vt 0.638822 0.433005
vt 0.333158 0.504107
vt 0.331877 0.086642
vt 0.536882 0.578269
vt 0.433859 0.562495
vt 0.433985 0.505637
vt 0.537043 0.505637
vt 0.433859 0.448779
vt 0.536882 0.433005
vt 0.438731 0.693470
vt 0.437602 0.744667
vt 0.260087 0.744612
vt 0.193092 0.693442
vt 0.639759 0.505637
vt 0.639598 0.433005
vt 0.639598 0.578269
vt 0.666503 0.656144
vt 0.615117 0.744722
vt 0.450283 0.086278
vt 0.475446 0.294936
vt 0.451563 0.503744
vt 0.390815 0.000000
vt 0.541935 0.113749
vt 0.423647 0.193523
vt 0.423997 0.090791
vt 0.542382 -0.017482
vt 0.331635 0.092188
vt 0.278276 0.128115
vt 0.240066 0.055947
vt 0.282824 0.000000
vt 0.701248 0.474910
vt 0.726854 0.548507
vt 0.726283 0.578474
vt 0.699697 0.578163
vt 0.240524 0.450469
vt 0.186676 0.511825
vt 0.166251 0.487074
vt 0.166009 0.278324
vt 0.278466 0.291531
vt 0.214477 0.075293
vt 0.541489 0.244980
vt 0.423456 0.244871
vt 0.674663 0.474599
vt 0.673112 0.577853
vt 0.969232 0.339295
vt 0.942640 0.339372
vt 0.942422 0.244189
vt 0.969014 0.244112
vt 0.659968 0.113859
vt 0.660415 -0.017372
vt 0.659522 0.245090
vt 0.392626 0.590386
vt 0.000000 1.159588
vt 0.997507 1.157393
vt 0.198812 1.985809
vt 0.003519 0.000000
vt 1.000000 0.319404
vt 0.995013 1.995381
vn -0.006873 0.000000 -0.999976
vn -0.006874 -0.000001 -0.999976
vn -0.006874 0.000001 -0.999976
vn -0.006874 0.000002 -0.999976
vn 0.913549 -0.000000 -0.406728
vn -0.523456 -0.000000 -0.852053
vn -0.523455 -0.000001 -0.852053
vn 0.780645 0.336936 0.526372
vn 0.780645 0.336935 0.526372
vn 0.780645 -0.336936 0.526372
vn 0.780645 -0.336935 0.526372
vn -0.770766 0.637118 0.000476
vn -0.771505 0.636223 0.000171
vn 0.917632 -0.397431 -0.000565
vn 0.917631 -0.397432 -0.000566
vn 0.917631 0.397432 -0.000566
vn 0.917631 0.397433 -0.000565
vn -0.935532 0.353242 0.000576
vn -0.758912 0.632183 0.156196
vn 0.505682 0.220861 -0.833970
vn 0.492299 0.220999 -0.841903
vn 0.496385 -0.216849 -0.840583
vn 0.504998 -0.226606 -0.832842
vn -0.174014 0.427816 -0.886957
vn -0.173665 0.433387 -0.884317
vn 0.347249 0.872115 0.344721
vn 0.347248 -0.872116 0.344720
vn 0.347249 -0.872116 0.344721
vn -0.348871 -0.936022 0.046378
vn -0.402488 -0.915425 0.000248
vn 0.005406 0.000738 0.999985
vn 0.005264 -0.000066 0.999986
vn 0.005213 0.000043 0.999986
vn 0.005213 0.000045 0.999986
vn 0.005286 -0.000075 0.999986
vn 0.005364 -0.000631 0.999985
vn -0.253220 0.967409 0.000156
vn -0.367897 0.929156 0.036358
vn 0.368299 -0.929707 -0.000227
vn 0.368300 0.929707 -0.000227
vn -0.368300 0.929707 0.000227
vn 0.180190 -0.466039 -0.866221
vn 0.179228 -0.478771 -0.859451
vn 0.184002 0.475582 -0.860212
vn 0.174187 0.465879 -0.867534
vn -0.205747 -0.457890 -0.864873
vn -0.171702 -0.428257 -0.887195
vn -0.989386 -0.141154 -0.034513
vn -0.989996 -0.141097 0.000220
vn -0.989949 -0.141424 0.000611
vn -0.984134 -0.177427 0.000606
g Runabout_Ship_Cockpit_Runabout_Ship_Cockpit_engine
usemtl engine
s off
f 1/1/1 2/2/1 3/3/1
f 1/1/1 3/3/1 4/4/1
f 1/1/2 4/4/2 5/5/2
f 4/4/3 6/6/3 5/5/3
f 6/6/4 7/7/4 5/5/4
g Runabout_Ship_Cockpit_Runabout_Ship_Cockpit_Metal1
usemtl Metal1
f 8/8/5 9/9/5 10/10/5
g Runabout_Ship_Cockpit_Runabout_Ship_Cockpit_Metal2
usemtl Metal2
f 11/11/6 12/12/6 13/1/6
f 11/11/7 13/1/7 14/5/7
f 15/13/8 16/14/8 17/15/8
f 15/13/9 17/15/9 18/16/9
f 18/16/10 17/15/10 19/17/10
f 18/16/11 19/17/11 20/18/11
f 21/19/12 22/20/12 12/21/12
f 21/19/13 12/21/13 23/22/13
f 24/23/14 18/16/14 20/18/14
f 24/23/15 20/18/15 25/24/15
f 26/25/16 15/13/16 18/16/16
f 26/25/17 18/16/17 24/23/17
f 27/26/18 28/27/18 22/20/18
f 27/26/19 22/20/19 21/19/19
f 26/28/20 24/29/20 29/4/20
f 26/28/21 29/4/21 30/3/21
f 24/29/22 25/30/22 31/6/22
f 24/29/23 31/6/23 29/4/23
g Runabout_Ship_Cockpit_Runabout_Ship_Cockpit_Metal1_metal2.JPG
usemtl Metal1_metal2.JPG
f 32/12/24 33/31/24 34/2/24
f 32/12/25 34/2/25 35/1/25
f 36/32/26 37/33/26 38/34/26
f 36/32/26 38/34/26 39/35/26
f 40/36/27 41/37/27 42/38/27
f 40/36/28 42/38/28 43/39/28
f 43/40/29 42/41/29 44/42/29
f 43/40/30 44/42/30 45/43/30
f 38/44/31 37/45/31 46/46/31
f 38/44/32 46/46/32 47/47/32
f 38/44/33 47/47/33 48/48/33
f 47/47/34 44/49/34 48/48/34
f 44/49/35 41/37/35 48/48/35
f 44/49/36 42/38/36 41/37/36
f 49/50/37 46/51/37 37/33/37
f 49/50/38 37/33/38 36/32/38
f 51/52/30 43/40/30 45/43/30
f 51/52/30 45/43/30 50/53/30
f 52/54/39 40/55/39 43/56/39
f 52/54/39 43/56/39 51/57/39
f 33/58/40 36/32/40 39/35/40
f 33/58/40 39/35/40 53/59/40
f 32/60/41 49/50/41 36/32/41
f 32/60/41 36/32/41 33/58/41
f 52/30/42 51/61/42 54/7/42
f 52/30/43 54/7/43 55/6/43
f 33/31/44 53/28/44 56/3/44
f 33/31/45 56/3/45 34/2/45
f 51/61/46 50/11/46 57/5/46
f 51/61/47 57/5/47 54/7/47
g Runabout_Ship_Cockpit_Runabout_Ship_Cockpit_Melting
usemtl Melting
f 21/62/48 45/63/48 27/64/48
f 21/62/49 23/65/49 50/66/49
f 45/63/50 21/62/50 50/66/50
f 44/67/51 27/64/51 45/63/51
