# Blender v2.65 (sub 0) OBJ File: 'ship.blend'
# www.blender.org
mtllib ship.mtl
o Cube
v 1.000000 -0.194569 -1.000000
v 1.000000 -0.194569 1.000000
v -1.000000 -0.194569 1.000000
v -1.000000 -0.194569 -1.000000
v 1.000000 0.119379 -0.999999
v 0.999999 0.119379 1.000001
v -1.000000 0.119379 1.000000
v -1.000000 0.119379 -1.000000
v 2.003248 0.492389 -0.219880
v 3.006496 1.000000 2.017769
v -1.931014 0.492389 -0.227907
v -3.014521 1.000000 1.985664
v 0.001634 0.563311 -0.510610
v -0.017027 0.119379 -2.005470
v 1.093543 -0.433952 0.039753
v -0.002328 -0.405920 -1.137250
v -0.000845 -0.261790 1.051546
v 0.996873 -0.045504 1.042928
v -1.095253 -0.431856 0.041459
v -0.997326 -0.045762 1.042859
v 1.036644 0.358755 0.041392
v 0.000190 0.015198 0.890496
v -1.083090 0.302492 -0.002927
v 1.549151 0.315677 -0.622802
v 2.731067 0.862402 1.111102
v 2.268870 0.607551 1.647558
v -1.512800 0.336652 -0.632758
v -2.696927 0.860913 1.093222
v -2.274393 0.611711 1.628253
v -2.258118 0.526967 1.716830
v 2.251303 0.525064 1.737921
v 1.615594 0.154117 -0.683625
v -1.573391 0.152424 -0.685425
v -0.468875 0.456669 0.301219
v 0.485262 0.410357 0.295772
v -0.573307 0.463617 -0.841785
v 0.551142 0.436129 -0.798260
v -0.003006 -0.661863 0.060206
v 0.000246 -0.040632 0.989151
v 2.036856 0.683424 0.706187
v -2.040989 0.688044 0.674190
v 2.212712 0.225228 0.701689
v -2.193684 0.300310 0.605505
vt 0.499607 0.507873
vt 0.499890 0.637515
vt 0.369226 0.630774
vt 0.356769 0.505422
vt 0.766368 0.407649
vt 0.635566 0.494587
vt 0.630774 0.369226
vt 0.796709 0.284542
vt 0.233092 0.411833
vt 0.358360 0.500383
vt 0.302165 0.582748
vt 0.711278 0.410599
vt 0.789365 0.591763
vt 0.643007 0.505199
vt 0.711278 0.589400
vt 0.630774 0.630774
vt 0.702589 0.581446
vt 0.213123 0.579184
vt 0.294241 0.410364
vt 0.369226 0.369226
vt 0.294241 0.589636
vt 0.500025 0.383546
vt 0.438683 0.460608
vt 0.563460 0.461321
vt 0.499695 0.351277
vt 0.857153 0.354697
vt 0.893172 0.236128
vt 0.761973 0.528755
vt 0.147312 0.357035
vt 0.247474 0.529804
vt 0.105779 0.240327
vt 0.202569 0.287067
vt 0.857153 0.645304
vt 0.761973 0.471245
vt 0.893172 0.763872
vt 0.794412 0.727275
vt 0.204697 0.724517
vt 0.105779 0.759674
vt 0.147312 0.642965
vt 0.247474 0.470196
vt 0.500214 0.566774
vt 0.425026 0.610084
vt 0.572075 0.604392
vt 0.502227 0.515612
vt 0.630778 0.515612
vt 0.574976 0.560631
vt 0.499786 0.573669
vt 0.427923 0.557036
vt 0.369222 0.515612
vt 0.369222 0.474555
vt 0.500305 0.446915
vt 0.630778 0.474555
vt 0.500032 0.494686
vt 0.500025 0.501988
vt 0.369572 0.494015
vt 0.105766 0.630778
vt 0.204687 0.568916
vt 0.202559 0.579998
vt 0.893184 0.630778
vt 0.796719 0.579454
vt 0.794421 0.568667
vt 0.499890 0.465764
vt 0.630369 0.494049
vn -0.000885 -0.998718 0.050020
vn -0.000214 -0.570940 0.820978
vn -0.152104 -0.711356 0.686148
vn -0.380047 -0.924894 -0.008179
vn -0.304514 0.952361 -0.014771
vn -0.035890 0.999329 -0.006256
vn -0.313089 0.721061 0.618061
vn -0.514725 0.795068 0.320750
vn 0.310892 0.950163 -0.022828
vn 0.014863 0.999878 -0.001801
vn -0.497787 0.578112 -0.646504
vn -0.171636 0.776330 -0.606464
vn 0.505875 -0.618213 -0.601520
vn 0.682669 -0.274941 -0.676992
vn 0.649373 -0.758721 -0.050935
vn 0.361003 -0.932524 -0.005463
vn 0.471999 0.593005 -0.652303
vn 0.177282 0.769677 -0.613269
vn -0.688620 -0.717429 -0.105014
vn -0.702475 -0.285257 -0.651997
vn -0.517197 -0.619373 -0.590625
vn 0.295572 0.728538 0.617908
vn 0.009095 0.716575 0.697409
vn -0.092868 0.956175 0.277657
vn 0.075503 0.958068 0.276345
vn -0.000458 -0.929411 -0.368999
vn 0.123447 -0.709037 0.694266
vn 0.834376 0.548967 0.049074
vn 0.626759 0.386975 0.676290
vn 0.661977 0.506027 -0.552873
vn -0.835414 0.549272 0.018738
vn -0.644856 0.530442 -0.550188
vn -0.655721 0.380993 0.651753
vn 0.517014 0.788965 0.331919
vn -0.043001 -0.263527 0.963683
vn 0.018281 -0.292428 0.956084
vn 0.026215 0.996185 -0.083193
vn -0.309519 0.925077 -0.219947
vn 0.294504 0.931822 -0.211921
vn -0.218493 0.902402 -0.371392
vn 0.233180 0.908034 -0.347997
vn 0.703055 0.000000 -0.711136
vn 0.000000 -0.855589 -0.517656
vn -0.715061 0.000000 -0.699062
vn 0.095102 0.537694 0.837759
vn 0.579476 0.639437 0.505300
vn -0.587542 0.651254 0.480273
vn 0.002720 0.052702 0.998607
vn -0.002754 0.052493 0.998617
vn -0.095260 0.538418 0.837276
vn 0.499421 0.225207 0.836576
vn 0.566953 0.644758 0.512691
vn 0.358535 -0.264313 0.895317
vn -0.372772 -0.264003 0.889575
vn -0.571069 0.658531 0.490119
vn -0.510336 0.225722 0.829824
g Cube_Cube_Metal
usemtl Metal
s 1
f 38/1/1 17/2/2 3/3/3
f 38/1/1 3/3/3 19/4/4
f 40/5/5 21/6/6 6/7/7
f 40/5/5 6/7/7 26/8/8
f 41/9/9 23/10/10 8/3/11
f 41/9/9 8/3/11 27/11/12
f 1/7/13 32/12/14 42/13/15
f 1/7/13 42/13/15 15/14/16
f 32/15/14 1/16/13 5/16/17
f 32/15/14 5/16/17 24/17/18
f 43/18/19 33/19/20 4/20/21
f 43/18/19 4/20/21 19/4/4
f 27/11/12 8/3/11 4/3/21
f 27/11/12 4/3/21 33/21/20
f 7/20/22 22/22/23 34/23/24
f 7/20/22 34/23/24 23/10/10
f 6/7/7 21/6/6 35/24/25
f 16/25/26 38/1/1 19/4/4
f 16/25/26 19/4/4 4/20/21
f 1/7/13 15/14/16 38/1/1
f 1/7/13 38/1/1 16/25/26
f 15/14/16 2/16/27 17/2/2
f 15/14/16 17/2/2 38/1/1
f 25/26/28 40/5/5 26/8/8
f 25/26/28 26/8/8 10/27/29
f 9/28/30 24/17/18 40/5/5
f 9/28/30 40/5/5 25/26/28
f 24/17/18 5/16/17 21/6/6
f 24/17/18 21/6/6 40/5/5
f 28/29/31 41/9/9 27/11/12
f 28/29/31 27/11/12 11/30/32
f 12/31/33 29/32/34 41/9/9
f 12/31/33 41/9/9 28/29/31
f 29/32/34 7/20/22 23/10/10
f 29/32/34 23/10/10 41/9/9
f 25/33/28 42/13/15 32/12/14
f 25/33/28 32/12/14 9/34/30
f 10/35/29 31/36/35 42/13/15
f 10/35/29 42/13/15 25/33/28
f 31/36/35 2/16/27 15/14/16
f 31/36/35 15/14/16 42/13/15
f 9/28/30 32/15/14 24/17/18
f 30/37/36 43/18/19 19/4/4
f 30/37/36 19/4/4 3/3/3
f 12/38/33 28/39/31 43/18/19
f 12/38/33 43/18/19 30/37/36
f 28/39/31 11/40/32 33/19/20
f 28/39/31 33/19/20 43/18/19
f 11/30/32 27/11/12 33/21/20
f 34/23/24 35/24/25 13/41/37
f 34/23/24 22/22/23 35/24/25
f 22/22/23 6/7/7 35/24/25
f 23/10/10 36/42/38 8/3/11
f 23/10/10 34/23/24 36/42/38
f 34/23/24 13/41/37 36/42/38
f 35/24/25 37/43/39 13/41/37
f 35/24/25 21/6/6 37/43/39
f 21/6/6 5/16/17 37/43/39
g Cube_Cube_Metal_black.png
usemtl Metal_black.png
s off
f 14/44/40 8/45/40 36/46/40
f 14/44/40 36/46/40 13/47/40
f 14/44/41 13/47/41 37/48/41
f 14/44/41 37/48/41 5/49/41
f 1/50/42 14/44/42 5/49/42
f 1/50/43 16/51/43 4/52/43
f 1/50/43 4/52/43 14/44/43
f 14/44/44 4/52/44 8/45/44
g Cube_Cube_Metal_blue.png
usemtl Metal_blue.png
f 39/53/45 22/54/45 7/49/45
f 39/53/45 7/49/45 20/55/45
f 12/56/46 30/57/46 29/58/46
f 10/59/47 26/60/47 31/61/47
f 17/62/48 39/53/48 20/55/48
f 17/62/48 20/55/48 3/50/48
f 2/52/49 18/63/49 39/53/49
f 2/52/49 39/53/49 17/62/49
f 18/63/50 6/45/50 22/54/50
f 18/63/50 22/54/50 39/53/50
f 29/58/51 20/55/51 7/49/51
f 29/58/52 30/57/52 20/55/52
f 30/57/53 3/50/53 20/55/53
f 31/61/54 18/63/54 2/52/54
f 31/61/55 26/60/55 18/63/55
f 26/60/56 6/45/56 18/63/56
